<?xml version="1.0" encoding="utf-8"?>
<!-- Generator: Adobe Illustrator 16.0.0, SVG Export Plug-In . SVG Version: 6.00 Build 0)  -->
<!DOCTYPE svg PUBLIC "-//W3C//DTD SVG 1.1//EN" "http://www.w3.org/Graphics/SVG/1.1/DTD/svg11.dtd">
<svg version="1.1" xmlns="http://www.w3.org/2000/svg" xmlns:xlink="http://www.w3.org/1999/xlink" x="0px" y="0px"
	 width="324.666px" height="52px" viewBox="0 0 324.666 52" enable-background="new 0 0 324.666 52" xml:space="preserve">
<g id="Layer_1" display="none">
	<path display="inline" opacity="0.4" fill-rule="evenodd" clip-rule="evenodd" fill="#FFFFFF" d="M-83-367.333
		c197.667,0,395.334,0,593,0c0,147.333,0,294.666,0,442c-197.666,0-395.333,0-593,0C-83-72.667-83-220-83-367.333z M128.472-281.848
		c6.27,0.712,11.729,1.174,17.137,1.974c21.917,3.239,38.385,15.995,53.576,30.918c9.036,8.876,16.579,18.74,19.698,31.306
		c3.426,13.805,0.063,26.726-5.461,39.332c-1.998,4.559-4.454,9.026-5.671,13.798c-5.199,20.378-1.826,40,6.2,59.039
		c8.687,20.602,21.635,38.6,34.967,56.309c12.029,15.98,24.15,31.879,33.047,49.904c1.51,3.059,3.755,3.206,6.543,3.203
		c39.488-0.043,78.975-0.035,118.462-0.041c1.578,0,3.156,0,5.663,0c-1.117-2.576-1.781-4.213-2.526-5.812
		c-23.356-50.104-46.724-100.204-70.085-150.307c-27.585-59.16-55.177-118.317-82.714-177.5c-1.136-2.44-2.206-4.049-5.379-4.038
		c-32.655,0.112-65.312,0.098-97.967,0.009c-2.824-0.008-4.07,1.126-5.099,3.599c-5.565,13.374-11.3,26.677-16.965,40.009
		C130.809-287.585,129.772-285.001,128.472-281.848z M7.206,3.448c49.816,0,98.645,0,147.063,0
		c-0.755-10.199-1.464-19.933-2.219-29.664c-0.063-0.811-0.432-1.602-0.679-2.396c-5.932-19.079-11.629-38.235-17.892-57.204
		c-3.618-10.961-3.939-21.874-1.788-33.013c4.165-21.567,15.882-39.208,28.691-56.475c5.879-7.925,10.707-16.798,14.902-25.761
		c4.813-10.284,4.396-20.908-2.747-30.286c-11.66-15.307-25.521-27.533-45.151-31.787c-4.754-1.03-6.899-0.509-8.93,4.294
		C85.272-180.326,51.867-101.903,18.521-23.455C14.828-14.766,11.198-6.05,7.206,3.448z M52.543,18.926
		c-1.573-3.62-5.114-5.295-9.326-3.632c-1.307,0.517-2.196,3.584-2.253,5.515c-0.244,8.146,0.071,16.306-0.168,24.451
		c-0.134,4.558,2.685,4.06,5.571,4.046c2.882-0.014,5.78,0.477,5.547-4.086c-0.262-5.143-0.111-10.313,0.01-15.467
		c0.091-3.869,1.559-7.079,5.911-7.258c4.72-0.195,5.649,3.352,5.737,7.112c0.116,4.988,0.34,10.004-0.034,14.966
		c-0.415,5.514,3.188,4.479,6.457,4.791c4.04,0.386,4.8-1.572,4.656-5.01c-0.194-4.65-0.208-9.319-0.036-13.971
		c0.186-5.033,2.844-8.234,6.448-7.914c4.643,0.412,5.308,3.947,5.398,7.611c0.131,5.32,0.128,10.646,0.067,15.969
		c-0.042,3.639,2.386,3.473,4.773,3.189c2.301-0.274,5.931,1.581,5.956-2.965c0.041-7.482,0.193-14.99-0.349-22.439
		c-0.436-5.982-4.404-9.701-10.334-9.229c-4.479,0.357-8.816,2.51-13.786,4.037C66.668,12.751,61.849,12.577,52.543,18.926z
		 M374.838,18.955c-1.92-3.753-4.795-4.838-9.471-3.876c-3.882,0.798-2.369,3.896-2.42,6.064
		c-0.176,7.486,0.145,14.988-0.152,22.467c-0.168,4.219,0.902,5.795,5.479,5.869c4.893,0.082,5.971-1.762,5.702-6.123
		c-0.296-4.806-0.209-9.658,0.069-14.47c0.213-3.681,2.045-6.495,6.187-6.415c4.087,0.08,5.219,3.062,5.304,6.522
		c0.137,5.49,0.297,10.989,0.113,16.474c-0.16,4.775,3.123,3.67,5.779,3.811c2.797,0.148,5.408,0.301,5.236-3.871
		c-0.207-4.985-0.163-9.989-0.006-14.979c0.159-5.049,2.794-8.357,6.346-7.984c4.809,0.504,5.52,4.143,5.563,8.041
		c0.059,5.159,0.069,10.32,0.007,15.48c-0.05,4.066,2.838,3.342,5.242,3.272c2.279-0.065,5.3,1.093,5.236-3.17
		c-0.109-7.322,0.135-14.652-0.096-21.97c-0.168-5.362-3.805-8.807-9.104-9.582c-5.562-0.813-9.972,1.406-13.686,5.154
		C388.124,12.731,383.344,12.562,374.838,18.955z M336.261,49.619c11.081,1.278,19.633-6.849,19.49-18.153
		c-0.132-10.467-7.532-17.059-19.128-17.049c-11.988,0.012-19.439,6.907-19.457,17.874C317.15,42.731,324.995,50.839,336.261,49.619
		z M195.739,49.606c11.161,1.291,19.384-7.273,19.294-17.821c-0.092-10.777-7.429-17.471-19.28-17.386
		c-12.059,0.086-18.981,6.863-19.208,18.074C176.358,41.728,183.609,50.95,195.739,49.606z M233.693,18.013
		c-1.279-5.018-5.824-2.841-9.146-2.623c-0.934,0.062-2.25,3.75-2.321,5.812c-0.271,7.805,0.155,15.636-0.195,23.435
		c-0.204,4.532,2.117,4.754,5.499,4.7c3.178-0.05,6.035,0.271,5.659-4.476c-0.353-4.462-0.122-8.973-0.079-13.461
		c0.053-5.463,2.586-8.948,6.479-9.039c3.898-0.09,6.075,3.121,6.115,9.146c0.031,4.821,0.045,9.644-0.045,14.464
		c-0.059,3.093,1.8,3.738,4.217,3.29c2.396-0.444,6.484,1.853,6.631-2.786c0.237-7.461,0.284-14.989-0.453-22.403
		c-0.684-6.862-5.322-10.327-12.164-9.533C240.604,14.919,237.48,16.673,233.693,18.013z M125.061,26.882
		c-2.684,0.425-4.957,0.751-7.217,1.152c-2.285,0.406-4.641,0.641-6.818,1.383c-5.737,1.957-8.422,6.736-7.296,12.505
		c0.986,5.05,4.577,7.948,10.548,7.574c3.441-0.216,6.811-1.569,10.766-2.548c-0.208-0.364,0.003,0.526,0.4,0.618
		c2.719,0.629,5.492,1.472,8.213,1.363c0.768-0.03,1.909-2.969,2.025-4.633c0.291-4.138,0.102-8.31,0.083-12.468
		c-0.065-14.123-6.148-19.275-20.139-17.055c-1.149,0.184-2.287,0.439-3.421,0.701c-5.644,1.309-6.113,2.193-4.478,8.376
		C122.738,20.632,123.459,20.731,125.061,26.882z M21.372,47.125c1.224,4.155,5.494,2.172,8.731,1.771
		c0.871-0.107,1.698-3.706,1.854-5.754c0.29-3.807,0.07-7.65,0.063-11.479c-0.026-13.91-5.95-18.991-19.771-16.933
		c-1.314,0.196-2.619,0.483-3.914,0.79c-5.449,1.287-6.135,2.726-4.27,7.882c4.501-0.587,8.859-1.48,13.226-1.526
		c1.319-0.014,2.663,2.326,3.996,3.588c-1.314,0.706-2.554,1.709-3.957,2.063c-3.694,0.928-7.615,1.145-11.159,2.434
		C1.1,31.806-1.084,36.737,0.019,42.211c0.891,4.419,4.758,7.62,9.846,7.297C13.471,49.278,17.015,48.067,21.372,47.125z
		 M155.742,41.417c1.886-2.447,2.833-3.721,3.824-4.955c3.853-4.798,7.869-9.476,11.489-14.441c1.035-1.421,1.551-3.825,1.117-5.464
		c-0.226-0.854-3.029-1.401-4.682-1.437c-6.984-0.15-13.976,0.054-20.959-0.102c-3.032-0.068-4.074,1.004-4.114,4.036
		c-0.043,3.269,1.442,3.938,4.275,3.802c3.515-0.17,7.044-0.041,11.678-0.041c-1.615,2.221-2.325,3.294-3.131,4.289
		c-3.979,4.91-8.127,9.693-11.897,14.758c-1.261,1.694-1.581,4.09-2.331,6.164c1.845,0.414,3.684,1.146,5.537,1.186
		c6.818,0.143,13.641,0.072,20.462,0.047c2.737-0.01,5.756,0.816,5.877-3.826c0.121-4.623-2.748-4.044-5.595-4.021
		C164.001,41.438,160.711,41.417,155.742,41.417z M311.492,40.388c-5.789,1.46-11.995,3.609-15.5-2.557
		c-1.592-2.802-1.746-7.806-0.299-10.675c3.391-6.726,9.952-4.804,15.768-3.501c1.438-7.832,0.619-9.107-6.622-9.16
		c-3.444-0.025-7.052,0.271-10.313,1.295c-7.203,2.258-11.295,8.456-11.536,16.403c-0.226,7.45,3.236,13.628,10.178,16.179
		c3.443,1.266,7.488,1.143,11.266,1.191C311.824,49.656,312.701,48.468,311.492,40.388z M275.447,44.87
		c0.535-3.402-0.209-5.486-4.34-5.219c-3.015,0.195-5.592-0.113-5.408,4.291c0.143,3.437,0.352,5.727,4.787,5.441
		C273.734,49.175,276.285,49.093,275.447,44.87z"/>
	<path display="inline" opacity="0.4" fill-rule="evenodd" clip-rule="evenodd" d="M128.472-281.848
		c1.3-3.154,2.337-5.737,3.426-8.299c5.665-13.333,11.399-26.636,16.965-40.009c1.029-2.472,2.275-3.606,5.099-3.599
		c32.656,0.089,65.312,0.104,97.967-0.009c3.173-0.011,4.243,1.598,5.379,4.038c27.537,59.183,55.129,118.34,82.714,177.5
		c23.361,50.103,46.729,100.203,70.085,150.307c0.745,1.599,1.409,3.235,2.526,5.812c-2.507,0-4.085,0-5.663,0
		c-39.487,0.006-78.974-0.002-118.462,0.041c-2.788,0.003-5.033-0.145-6.543-3.203c-8.896-18.025-21.018-33.924-33.047-49.904
		c-13.332-17.709-26.28-35.707-34.967-56.309c-8.026-19.039-11.399-38.66-6.2-59.039c1.217-4.772,3.673-9.24,5.671-13.798
		c5.523-12.605,8.887-25.527,5.461-39.332c-3.119-12.566-10.662-22.43-19.698-31.306c-15.191-14.923-31.66-27.679-53.576-30.918
		C140.2-280.673,134.741-281.136,128.472-281.848z"/>
	<path display="inline" opacity="0.4" fill-rule="evenodd" clip-rule="evenodd" d="M7.206,3.448
		c3.992-9.498,7.622-18.214,11.315-26.903c33.346-78.448,66.751-156.871,99.937-235.387c2.03-4.803,4.176-5.325,8.93-4.294
		c19.631,4.253,33.492,16.479,45.151,31.787c7.143,9.378,7.56,20.002,2.747,30.286c-4.195,8.962-9.023,17.835-14.902,25.761
		c-12.809,17.268-24.526,34.908-28.691,56.475c-2.151,11.139-1.831,22.052,1.788,33.013c6.263,18.969,11.959,38.125,17.892,57.204
		c0.247,0.794,0.616,1.585,0.679,2.396c0.755,9.731,1.464,19.465,2.219,29.664C105.851,3.448,57.022,3.448,7.206,3.448z"/>
	<path display="inline" opacity="0.4" fill-rule="evenodd" clip-rule="evenodd" d="M52.543,18.926
		c9.305-6.349,14.125-6.175,20.244-0.282c4.97-1.527,9.307-3.68,13.786-4.037c5.93-0.473,9.899,3.246,10.334,9.229
		c0.542,7.449,0.39,14.957,0.349,22.439c-0.025,4.546-3.655,2.69-5.956,2.965c-2.387,0.283-4.815,0.449-4.773-3.189
		c0.062-5.322,0.064-10.648-0.067-15.969c-0.09-3.664-0.755-7.199-5.398-7.611c-3.604-0.32-6.262,2.881-6.448,7.914
		c-0.172,4.651-0.158,9.32,0.036,13.971c0.144,3.438-0.616,5.396-4.656,5.01c-3.27-0.313-6.872,0.723-6.457-4.791
		c0.374-4.962,0.15-9.978,0.034-14.966c-0.088-3.761-1.017-7.308-5.737-7.112c-4.352,0.179-5.82,3.389-5.911,7.258
		c-0.122,5.154-0.272,10.324-0.01,15.467c0.232,4.563-2.666,4.072-5.547,4.086c-2.886,0.014-5.705,0.512-5.571-4.046
		c0.239-8.146-0.076-16.306,0.168-24.451c0.058-1.931,0.946-4.998,2.253-5.515C47.43,13.631,50.971,15.306,52.543,18.926z"/>
	<path display="inline" opacity="0.4" fill-rule="evenodd" clip-rule="evenodd" d="M374.838,18.955
		c8.506-6.394,13.286-6.224,21.329,0.716c3.714-3.748,8.124-5.967,13.686-5.154c5.3,0.775,8.937,4.22,9.104,9.582
		c0.23,7.317-0.014,14.647,0.096,21.97c0.063,4.263-2.957,3.104-5.236,3.17c-2.404,0.069-5.292,0.794-5.242-3.272
		c0.063-5.16,0.052-10.321-0.007-15.48c-0.044-3.898-0.755-7.537-5.563-8.041c-3.552-0.373-6.187,2.936-6.346,7.984
		c-0.157,4.989-0.201,9.993,0.006,14.979c0.172,4.172-2.439,4.02-5.236,3.871c-2.656-0.141-5.939,0.965-5.779-3.811
		c0.184-5.484,0.023-10.983-0.113-16.474c-0.085-3.461-1.217-6.442-5.304-6.522c-4.142-0.08-5.974,2.734-6.187,6.415
		c-0.278,4.812-0.365,9.664-0.069,14.47c0.269,4.361-0.81,6.205-5.702,6.123c-4.576-0.074-5.646-1.65-5.479-5.869
		c0.297-7.479-0.023-14.98,0.152-22.467c0.051-2.169-1.462-5.267,2.42-6.064C370.043,14.117,372.918,15.202,374.838,18.955z"/>
	<path display="inline" opacity="0.4" fill-rule="evenodd" clip-rule="evenodd" d="M336.261,49.619
		c-11.266,1.22-19.11-6.888-19.095-17.328c0.018-10.967,7.469-17.862,19.457-17.874c11.596-0.01,18.996,6.582,19.128,17.049
		C355.894,42.771,347.342,50.897,336.261,49.619z M344.408,32.035c0.041-6.3-2.496-9.506-7.596-9.599
		c-5.203-0.096-8.335,3.447-8.463,9.576c-0.129,6.138,2.904,9.844,8.076,9.869C341.682,41.909,344.365,38.599,344.408,32.035z"/>
	<path display="inline" opacity="0.4" fill-rule="evenodd" clip-rule="evenodd" d="M195.739,49.606
		c-12.13,1.344-19.381-7.879-19.194-17.133c0.227-11.211,7.149-17.988,19.208-18.074c11.852-0.085,19.188,6.608,19.28,17.386
		C215.123,42.333,206.9,50.897,195.739,49.606z M187.701,32.14c-0.085,6.217,2.797,9.71,8.026,9.729
		c5.243,0.018,7.973-3.246,8.095-9.676c0.12-6.273-2.691-9.714-7.942-9.725C190.751,22.458,187.786,25.966,187.701,32.14z"/>
	<path display="inline" opacity="0.4" fill-rule="evenodd" clip-rule="evenodd" d="M233.693,18.013
		c3.787-1.34,6.911-3.094,10.195-3.476c6.842-0.794,11.48,2.671,12.164,9.533c0.737,7.414,0.69,14.942,0.453,22.403
		c-0.146,4.639-4.234,2.342-6.631,2.786c-2.417,0.448-4.275-0.197-4.217-3.29c0.09-4.82,0.076-9.643,0.045-14.464
		c-0.04-6.024-2.217-9.235-6.115-9.146c-3.893,0.091-6.426,3.576-6.479,9.039c-0.043,4.488-0.273,8.999,0.079,13.461
		c0.376,4.746-2.481,4.426-5.659,4.476c-3.382,0.054-5.703-0.168-5.499-4.7c0.351-7.799-0.075-15.63,0.195-23.435
		c0.071-2.062,1.388-5.75,2.321-5.812C227.869,15.172,232.414,12.995,233.693,18.013z"/>
	<path display="inline" opacity="0.4" fill-rule="evenodd" clip-rule="evenodd" d="M125.061,26.882
		c-1.602-6.15-2.323-6.25-17.333-3.03c-1.636-6.183-1.166-7.067,4.478-8.376c1.134-0.262,2.272-0.518,3.421-0.701
		c13.991-2.221,20.074,2.932,20.139,17.055c0.019,4.158,0.208,8.33-0.083,12.468c-0.117,1.664-1.258,4.603-2.025,4.633
		c-2.721,0.108-5.494-0.734-8.213-1.363c-0.397-0.092-0.608-0.982-0.4-0.618c-3.956,0.979-7.325,2.332-10.766,2.548
		c-5.971,0.374-9.562-2.524-10.548-7.574c-1.126-5.769,1.559-10.548,7.296-12.505c2.177-0.742,4.533-0.977,6.818-1.383
		C120.104,27.633,122.377,27.307,125.061,26.882z M117.134,42.505c4.938,0.068,8.419-3.196,8.052-6.609
		c-0.101-0.937-1.622-2.386-2.574-2.454c-5.234-0.378-9.442,2.032-8.722,5.017C114.322,40.253,116.406,41.649,117.134,42.505z"/>
	<path display="inline" opacity="0.4" fill-rule="evenodd" clip-rule="evenodd" d="M21.372,47.125
		c-4.357,0.942-7.901,2.153-11.507,2.383c-5.088,0.323-8.955-2.878-9.846-7.297C-1.084,36.737,1.1,31.806,6.171,29.96
		c3.544-1.289,7.465-1.506,11.159-2.434c1.403-0.354,2.643-1.356,3.957-2.063c-1.333-1.262-2.676-3.602-3.996-3.588
		c-4.367,0.046-8.725,0.939-13.226,1.526c-1.865-5.156-1.18-6.595,4.27-7.882c1.295-0.307,2.599-0.594,3.914-0.79
		c13.821-2.059,19.745,3.022,19.771,16.933c0.007,3.828,0.227,7.672-0.063,11.479c-0.156,2.048-0.983,5.646-1.854,5.754
		C26.866,49.297,22.596,51.28,21.372,47.125z M19.693,33.104c-4.43,1.01-9.131,0.121-9.445,5.193
		c-0.081,1.313,3.097,3.908,4.905,4.031c3.772,0.256,6.083-2.484,6.396-6.235C21.636,35.067,20.228,33.915,19.693,33.104z"/>
	<path display="inline" opacity="0.4" fill-rule="evenodd" clip-rule="evenodd" d="M155.742,41.417c4.969,0,8.26,0.021,11.55-0.006
		c2.847-0.022,5.715-0.602,5.595,4.021c-0.121,4.643-3.14,3.816-5.877,3.826c-6.821,0.025-13.644,0.096-20.462-0.047
		c-1.853-0.039-3.692-0.771-5.537-1.186c0.75-2.074,1.069-4.47,2.331-6.164c3.771-5.064,7.919-9.848,11.897-14.758
		c0.807-0.995,1.516-2.068,3.131-4.289c-4.634,0-8.163-0.129-11.678,0.041c-2.833,0.136-4.318-0.533-4.275-3.802
		c0.04-3.032,1.082-4.104,4.114-4.036c6.984,0.155,13.976-0.049,20.959,0.102c1.653,0.035,4.457,0.582,4.682,1.437
		c0.434,1.639-0.082,4.043-1.117,5.464c-3.621,4.966-7.636,9.644-11.489,14.441C158.574,37.696,157.628,38.97,155.742,41.417z"/>
	<path display="inline" opacity="0.4" fill-rule="evenodd" clip-rule="evenodd" d="M311.492,40.388
		c1.209,8.08,0.332,9.269-7.059,9.176c-3.777-0.049-7.822,0.074-11.266-1.191c-6.941-2.551-10.403-8.729-10.178-16.179
		c0.241-7.947,4.333-14.146,11.536-16.403c3.261-1.023,6.868-1.32,10.313-1.295c7.241,0.053,8.06,1.328,6.622,9.16
		c-5.815-1.303-12.377-3.225-15.768,3.501c-1.447,2.869-1.293,7.873,0.299,10.675C299.497,43.997,305.703,41.848,311.492,40.388z"/>
	<path display="inline" opacity="0.4" fill-rule="evenodd" clip-rule="evenodd" d="M275.447,44.87
		c0.838,4.223-1.713,4.305-4.961,4.514c-4.436,0.285-4.645-2.005-4.787-5.441c-0.184-4.404,2.394-4.096,5.408-4.291
		C275.238,39.384,275.982,41.468,275.447,44.87z"/>
	<path display="inline" opacity="0.4" fill-rule="evenodd" clip-rule="evenodd" fill="#FFFFFF" d="M344.408,32.035
		c-0.043,6.563-2.727,9.874-7.982,9.847c-5.172-0.025-8.205-3.731-8.076-9.869c0.128-6.129,3.26-9.672,8.463-9.576
		C341.912,22.529,344.449,25.735,344.408,32.035z"/>
	<path display="inline" opacity="0.4" fill-rule="evenodd" clip-rule="evenodd" fill="#FFFFFF" d="M187.701,32.14
		c0.084-6.174,3.05-9.682,8.179-9.672c5.251,0.011,8.062,3.451,7.942,9.725c-0.122,6.43-2.852,9.693-8.095,9.676
		C190.498,41.85,187.616,38.356,187.701,32.14z"/>
	<path display="inline" opacity="0.4" fill-rule="evenodd" clip-rule="evenodd" fill="#FFFFFF" d="M117.134,42.505
		c-0.728-0.855-2.812-2.252-3.244-4.047c-0.72-2.984,3.488-5.395,8.722-5.017c0.952,0.068,2.473,1.518,2.574,2.454
		C125.553,39.309,122.071,42.573,117.134,42.505z"/>
	<path display="inline" opacity="0.4" fill-rule="evenodd" clip-rule="evenodd" fill="#FFFFFF" d="M19.693,33.104
		c0.535,0.811,1.943,1.963,1.857,2.989c-0.313,3.751-2.625,6.491-6.396,6.235c-1.809-0.123-4.986-2.719-4.905-4.031
		C10.562,33.226,15.263,34.114,19.693,33.104z"/>
</g>
<g id="Layer_2" display="none">
	
		<text transform="matrix(1.2803 0 0 1 6.0952 50.7158)" display="inline" fill="#21418D" font-family="'MyriadPro-Bold'" font-size="57.5494">danube.com</text>
	<polygon display="inline" fill-rule="evenodd" clip-rule="evenodd" fill="#21418D" points="153.961,-333.754 251.929,-333.754 
		409.287,3.448 8.138,2.173 	"/>
	
		<text transform="matrix(1.2278 0 0 1 127.6772 -21.5781)" display="inline" fill="#FFFFFF" font-family="'MyriadPro-Bold'" font-size="293.7501">?</text>
	
		<rect x="195.788" y="-331.763" display="inline" fill-rule="evenodd" clip-rule="evenodd" fill="#FFFFFF" width="18.39" height="31.035"/>
	
		<rect x="195.788" y="-284.716" display="inline" fill-rule="evenodd" clip-rule="evenodd" fill="#FFFFFF" width="18.39" height="43.138"/>
</g>
<g id="Layer_3">
	
		<rect x="-128.644" y="-466.793" display="none" fill-rule="evenodd" clip-rule="evenodd" fill="#F29B60" width="666.667" height="551.724"/>
	<g>
		<path fill="#21418D" d="M33.572,4.851v32.462c0,3.166,0.116,6.504,0.231,8.403h-7.811l-0.405-4.145h-0.116
			c-1.793,3.166-5.208,4.777-8.852,4.777c-6.712,0-12.092-5.697-12.092-14.446c-0.058-9.497,5.901-14.965,12.67-14.965
			c3.472,0,6.191,1.209,7.464,3.166h0.116V4.851H33.572z M24.777,29.485c0-0.461-0.058-1.094-0.116-1.555
			c-0.521-2.359-2.43-4.316-5.149-4.316c-3.992,0-6.075,3.568-6.075,8c0,4.777,2.373,7.771,6.018,7.771
			c2.546,0,4.571-1.727,5.091-4.202c0.173-0.633,0.231-1.266,0.231-2.014V29.485z"/>
		<path fill="#21418D" d="M56.712,45.716l-0.521-2.82h-0.174c-1.852,2.245-4.744,3.453-8.1,3.453c-5.728,0-9.141-4.144-9.141-8.633
			c0-7.31,6.596-10.821,16.605-10.764V26.55c0-1.497-0.81-3.626-5.149-3.626c-2.893,0-5.959,0.979-7.811,2.129l-1.62-5.64
			c1.967-1.094,5.844-2.476,10.993-2.476c9.431,0,12.439,5.525,12.439,12.145v9.784c0,2.705,0.116,5.296,0.405,6.85H56.712z
			 M55.671,32.42c-4.629-0.058-8.216,1.036-8.216,4.433c0,2.244,1.504,3.338,3.471,3.338c2.199,0,3.992-1.438,4.571-3.223
			c0.116-0.461,0.174-0.979,0.174-1.497V32.42z"/>
		<path fill="#21418D" d="M71.176,26.55c0-3.511-0.116-6.504-0.231-8.979h7.637l0.405,3.855h0.173
			c1.157-1.784,4.051-4.489,8.737-4.489c5.786,0,10.125,3.799,10.125,12.087v16.691h-8.795V30.118c0-3.626-1.273-6.101-4.455-6.101
			c-2.43,0-3.876,1.669-4.455,3.28c-0.231,0.518-0.347,1.381-0.347,2.188v16.23h-8.794V26.55z"/>
		<path fill="#21418D" d="M131.751,36.68c0,3.684,0.116,6.677,0.232,9.036h-7.638l-0.405-3.972h-0.173
			c-1.099,1.727-3.761,4.604-8.853,4.604c-5.728,0-9.952-3.568-9.952-12.259V17.571h8.853v15.137c0,4.087,1.331,6.562,4.397,6.562
			c2.43,0,3.818-1.669,4.397-3.051c0.231-0.518,0.289-1.208,0.289-1.899V17.571h8.853V36.68z"/>
		<path fill="#21418D" d="M138.577,45.716c0.116-1.842,0.231-5.237,0.231-8.403V4.851h8.794v16.059h0.116
			c1.678-2.417,4.628-3.972,8.563-3.972c6.77,0,11.745,5.583,11.688,14.217c0,10.13-6.48,15.194-12.96,15.194
			c-3.298,0-6.48-1.208-8.504-4.547h-0.116l-0.347,3.914H138.577z M147.603,33.744c0,0.575,0.058,1.094,0.174,1.554
			c0.579,2.36,2.604,4.145,5.149,4.145c3.76,0,6.075-2.878,6.075-7.943c0-4.374-1.967-7.827-6.075-7.827
			c-2.373,0-4.571,1.784-5.149,4.316c-0.116,0.519-0.174,1.036-0.174,1.612V33.744z"/>
		<path fill="#21418D" d="M180.348,34.435c0.289,3.626,3.876,5.353,7.984,5.353c3.009,0,5.439-0.402,7.811-1.15l1.157,5.928
			c-2.893,1.151-6.422,1.727-10.241,1.727c-9.604,0-15.101-5.525-15.101-14.331c0-7.137,4.455-15.022,14.291-15.022
			c9.142,0,12.613,7.08,12.613,14.044c0,1.496-0.174,2.82-0.29,3.453H180.348z M190.705,28.449c0-2.13-0.926-5.698-4.976-5.698
			c-3.703,0-5.208,3.338-5.438,5.698H190.705z"/>
		<path fill="#21418D" d="M202.564,41.054c0-3.108,2.141-5.353,5.207-5.353s5.149,2.187,5.149,5.353
			c0,3.051-2.083,5.295-5.207,5.295C204.705,46.349,202.564,44.104,202.564,41.054z"/>
		<path fill="#21418D" d="M239.477,45.025c-1.562,0.69-4.512,1.266-7.869,1.266c-9.14,0-14.984-5.525-14.984-14.389
			c0-8.23,5.67-14.965,16.2-14.965c2.314,0,4.86,0.403,6.712,1.094l-1.389,6.504c-1.042-0.46-2.604-0.863-4.918-0.863
			c-4.628,0-7.638,3.28-7.579,7.885c0,5.181,3.472,7.886,7.753,7.886c2.083,0,3.702-0.346,5.033-0.863L239.477,45.025z"/>
		<path fill="#21418D" d="M271.646,31.327c0,10.302-7.348,15.021-14.928,15.021c-8.274,0-14.638-5.41-14.638-14.504
			s6.017-14.907,15.101-14.907C265.859,16.938,271.646,22.866,271.646,31.327z M251.163,31.614c0,4.835,2.025,8.461,5.786,8.461
			c3.413,0,5.612-3.396,5.612-8.461c0-4.201-1.62-8.461-5.612-8.461C252.725,23.153,251.163,27.471,251.163,31.614z"/>
		<path fill="#21418D" d="M277.082,26.55c0-3.511-0.116-6.504-0.231-8.979h7.406l0.403,3.798h0.174
			c1.216-1.784,3.703-4.432,8.563-4.432c3.646,0,6.538,1.842,7.753,4.777h0.115c1.042-1.438,2.315-2.59,3.646-3.396
			c1.562-0.921,3.297-1.382,5.38-1.382c5.438,0,9.548,3.799,9.548,12.202v16.576h-8.564v-15.31c0-4.087-1.33-6.446-4.166-6.446
			c-2.025,0-3.471,1.381-4.049,3.05c-0.232,0.634-0.349,1.555-0.349,2.245v16.461h-8.562V29.945c0-3.568-1.273-5.985-4.05-5.985
			c-2.257,0-3.588,1.727-4.108,3.165c-0.289,0.69-0.348,1.497-0.348,2.188v16.403h-8.563V26.55z"/>
	</g>
</g>
</svg>
